<?xml version="1.0" encoding="UTF-8"?>
<svg xmlns="http://www.w3.org/2000/svg" xmlns:xlink="http://www.w3.org/1999/xlink" width="394.779205pt" height="394.779205pt" viewBox="0 0 394.779205 394.779205" version="1.1">
<g id="surface1">
<path style=" stroke:none;fill-rule:nonzero;fill:rgb(100%,100%,100%);fill-opacity:1;" d="M 251.425781 251.222656 C 226.976562 270.273438 207.042969 293.804688 186.878906 317.105469 C 178.25 307.960938 170.402344 298.257812 165.34375 286.558594 C 159.621094 273.21875 137.871094 292.625 143.027344 304.636719 C 150.082031 320.945312 162.644531 334.207031 175.011719 346.703125 C 180.054688 351.835938 188.722656 346.039062 192.203125 342.070312 C 214.324219 316.949219 234.960938 290.515625 261.511719 269.824219 C 274.253906 259.914062 266.609375 239.394531 251.425781 251.222656 Z M 251.425781 251.222656 "/>
<path style=" stroke:none;fill-rule:nonzero;fill:rgb(100%,100%,100%);fill-opacity:1;" d="M 321.8125 28.320312 L 260.730469 28.320312 C 256.441406 23.601562 250.296875 20.574219 243.425781 20.574219 L 219.894531 20.574219 L 219.894531 16.589844 C 219.894531 7.957031 208.332031 0 197.390625 0 C 186.449219 0 174.886719 7.957031 174.886719 16.589844 L 174.886719 20.574219 L 151.355469 20.574219 C 144.480469 20.574219 138.335938 23.601562 134.050781 28.320312 L 72.941406 28.320312 C 66.460938 28.320312 61.265625 33.5625 61.265625 40.015625 L 61.265625 383.078125 C 61.265625 389.515625 66.449219 394.777344 72.941406 394.777344 L 321.8125 394.777344 C 328.277344 394.777344 333.515625 389.558594 333.515625 383.078125 L 333.515625 40.015625 C 333.511719 33.5625 328.277344 28.320312 321.8125 28.320312 Z M 310.085938 371.390625 L 84.628906 371.390625 L 84.628906 51.707031 L 118.457031 51.707031 L 118.457031 51.710938 L 129.234375 51.710938 C 132.410156 60.941406 141.050781 67.625 151.367188 67.625 L 243.414062 67.625 C 253.730469 67.625 262.371094 60.941406 265.546875 51.710938 L 276.324219 51.710938 L 276.324219 51.707031 L 310.085938 51.707031 Z M 310.085938 371.390625 "/>
<path style=" stroke:none;fill-rule:nonzero;fill:rgb(100%,100%,100%);fill-opacity:1;" d="M 106.480469 91.855469 L 288.296875 91.855469 L 288.296875 110.039062 L 106.480469 110.039062 Z M 106.480469 91.855469 "/>
<path style=" stroke:none;fill-rule:nonzero;fill:rgb(100%,100%,100%);fill-opacity:1;" d="M 106.480469 131.855469 L 288.296875 131.855469 L 288.296875 150.039062 L 106.480469 150.039062 Z M 106.480469 131.855469 "/>
<path style=" stroke:none;fill-rule:nonzero;fill:rgb(100%,100%,100%);fill-opacity:1;" d="M 106.480469 171.855469 L 288.296875 171.855469 L 288.296875 190.039062 L 106.480469 190.039062 Z M 106.480469 171.855469 "/>
<path style=" stroke:none;fill-rule:nonzero;fill:rgb(100%,100%,100%);fill-opacity:1;" d="M 106.480469 211.855469 L 288.296875 211.855469 L 288.296875 230.039062 L 106.480469 230.039062 Z M 106.480469 211.855469 "/>
</g>
</svg>
